<?xml version="1.0" encoding="UTF-8"?>
<svg xmlns="http://www.w3.org/2000/svg" xmlns:xlink="http://www.w3.org/1999/xlink" width="28px" height="32px" viewBox="0 0 28 24" version="1.1">
<g id="surface1">
<path style=" stroke:none;fill-rule:nonzero;fill:rgb(0%,0%,0%);fill-opacity:1;" d="M 3.109375 1.5 C 1.394531 1.5 0 2.84375 0 4.5 L 0 6 L 28 6 L 28 4.5 C 28 2.84375 26.605469 1.5 24.890625 1.5 Z M 28 10.5 L 0 10.5 L 0 19.5 C 0 21.15625 1.394531 22.5 3.109375 22.5 L 24.890625 22.5 C 26.605469 22.5 28 21.15625 28 19.5 Z M 5.445312 16.5 L 8.554688 16.5 C 8.984375 16.5 9.332031 16.835938 9.332031 17.25 C 9.332031 17.664062 8.984375 18 8.554688 18 L 5.445312 18 C 5.015625 18 4.667969 17.664062 4.667969 17.25 C 4.667969 16.835938 5.015625 16.5 5.445312 16.5 Z M 10.890625 17.25 C 10.890625 16.835938 11.238281 16.5 11.667969 16.5 L 17.890625 16.5 C 18.316406 16.5 18.667969 16.835938 18.667969 17.25 C 18.667969 17.664062 18.316406 18 17.890625 18 L 11.667969 18 C 11.238281 18 10.890625 17.664062 10.890625 17.25 Z M 10.890625 17.25 "/>
</g>
</svg>
