<?xml version="1.0" encoding="UTF-8"?>
<svg xmlns="http://www.w3.org/2000/svg" xmlns:xlink="http://www.w3.org/1999/xlink" width="28px" height="32px" viewBox="0 0 28 28" version="1.1">
<g id="surface1">
<path style=" stroke:none;fill-rule:nonzero;fill:rgb(0%,0%,0%);fill-opacity:1;" d="M 28 4.375 C 28 5.359375 27.21875 6.265625 25.898438 7 C 24.308594 7.878906 21.933594 8.503906 19.210938 8.691406 C 19.007812 8.589844 18.808594 8.5 18.59375 8.417969 C 16.4375 7.515625 13.574219 7 10.5 7 C 10.046875 7 9.601562 7.011719 9.160156 7.03125 L 9.101562 7 C 7.78125 6.265625 7 5.359375 7 4.375 C 7 1.957031 11.703125 0 17.5 0 C 23.296875 0 28 1.957031 28 4.375 Z M 8.789062 8.808594 C 9.347656 8.773438 9.921875 8.75 10.5 8.75 C 13.902344 8.75 16.921875 9.421875 18.839844 10.46875 C 20.195312 11.207031 21 12.125 21 13.125 C 21 13.34375 20.960938 13.558594 20.886719 13.765625 C 20.632812 14.488281 19.957031 15.148438 18.972656 15.707031 C 18.964844 15.710938 18.953125 15.710938 18.949219 15.71875 C 18.933594 15.726562 18.917969 15.734375 18.898438 15.746094 C 16.984375 16.804688 13.933594 17.496094 10.5 17.496094 C 7.242188 17.496094 4.324219 16.875 2.394531 15.902344 C 2.292969 15.855469 2.191406 15.800781 2.09375 15.746094 C 0.78125 15.015625 0 14.109375 0 13.125 C 0 11.222656 2.921875 9.597656 7 9 C 7.574219 8.917969 8.171875 8.855469 8.789062 8.808594 Z M 22.75 13.125 C 22.75 11.925781 22.171875 10.941406 21.433594 10.203125 C 22.980469 9.964844 24.394531 9.582031 25.597656 9.082031 C 26.492188 8.710938 27.320312 8.253906 28 7.6875 L 28 9.625 C 28 10.679688 27.097656 11.652344 25.605469 12.410156 C 24.804688 12.8125 23.832031 13.15625 22.738281 13.421875 C 22.746094 13.320312 22.75 13.230469 22.75 13.128906 Z M 21 18.375 C 21 19.359375 20.21875 20.265625 18.898438 21 C 18.800781 21.054688 18.703125 21.105469 18.597656 21.160156 C 16.675781 22.132812 13.757812 22.75 10.5 22.75 C 7.066406 22.75 4.015625 22.0625 2.101562 21 C 0.78125 20.265625 0 19.359375 0 18.375 L 0 16.4375 C 0.683594 17.003906 1.507812 17.460938 2.402344 17.832031 C 4.5625 18.734375 7.425781 19.25 10.5 19.25 C 13.574219 19.25 16.4375 18.734375 18.597656 17.832031 C 19.027344 17.660156 19.4375 17.457031 19.824219 17.238281 C 20.15625 17.050781 20.46875 16.84375 20.765625 16.625 C 20.847656 16.566406 20.921875 16.5 21 16.4375 Z M 22.75 18.375 L 22.75 15.207031 C 23.789062 14.980469 24.746094 14.6875 25.597656 14.332031 C 26.492188 13.960938 27.320312 13.503906 28 12.9375 L 28 14.875 C 28 15.449219 27.726562 16.023438 27.183594 16.566406 C 26.292969 17.457031 24.722656 18.1875 22.738281 18.664062 C 22.746094 18.570312 22.75 18.472656 22.75 18.375 Z M 10.5 24.5 C 13.574219 24.5 16.4375 23.984375 18.597656 23.082031 C 19.492188 22.710938 20.320312 22.253906 21 21.6875 L 21 23.625 C 21 26.042969 16.296875 28 10.5 28 C 4.703125 28 0 26.042969 0 23.625 L 0 21.6875 C 0.683594 22.253906 1.507812 22.710938 2.402344 23.082031 C 4.5625 23.984375 7.425781 24.5 10.5 24.5 Z M 10.5 24.5 "/>
</g>
</svg>
