<?xml version="1.0" encoding="UTF-8"?>
<svg xmlns="http://www.w3.org/2000/svg" xmlns:xlink="http://www.w3.org/1999/xlink" width="28px" height="32px" viewBox="0 0 28 28" version="1.1">
<g id="surface1">
<path style=" stroke:none;fill-rule:nonzero;fill:rgb(0%,0%,0%);fill-opacity:1;" d="M 0 5.25 C 0 4.28125 0.78125 3.5 1.75 3.5 L 22.75 3.5 C 23.71875 3.5 24.5 4.28125 24.5 5.25 C 24.5 6.21875 23.71875 7 22.75 7 L 1.75 7 C 0.78125 7 0 6.21875 0 5.25 Z M 3.5 14 C 3.5 13.03125 4.28125 12.25 5.25 12.25 L 26.25 12.25 C 27.21875 12.25 28 13.03125 28 14 C 28 14.96875 27.21875 15.75 26.25 15.75 L 5.25 15.75 C 4.28125 15.75 3.5 14.96875 3.5 14 Z M 24.5 22.75 C 24.5 23.71875 23.71875 24.5 22.75 24.5 L 1.75 24.5 C 0.78125 24.5 0 23.71875 0 22.75 C 0 21.78125 0.78125 21 1.75 21 L 22.75 21 C 23.71875 21 24.5 21.78125 24.5 22.75 Z M 24.5 22.75 "/>
</g>
</svg>
