<?xml version="1.0" encoding="UTF-8"?>
<svg xmlns="http://www.w3.org/2000/svg" xmlns:xlink="http://www.w3.org/1999/xlink" width="120px" height="120px" viewBox="0 0 120 120" version="1.1">
<g id="surface1">
<path style=" stroke:none;fill-rule:nonzero;fill:rgb(0.392157%,0%,0.784314%);fill-opacity:1;" d="M 93.011719 69.472656 C 79.183594 64.957031 73.433594 59.34375 73.433594 59.34375 L 72.96875 59.78125 C 68.863281 63.644531 64.324219 65.921875 60.183594 65.921875 L 59.792969 65.921875 C 55.65625 65.921875 51.113281 63.644531 47.003906 59.78125 L 46.542969 59.34375 C 46.542969 59.34375 40.796875 64.957031 26.96875 69.472656 C 6.550781 77.097656 12.683594 108.136719 12.675781 108.375 C 13.316406 111.832031 13.691406 113.019531 14.019531 113.15625 C 34.519531 122.28125 85.457031 122.28125 105.957031 113.15625 C 106.285156 113.019531 106.660156 111.832031 107.300781 108.375 C 107.296875 108.136719 113.511719 77.222656 93.011719 69.472656 Z M 93.011719 69.472656 "/>
<path style=" stroke:none;fill-rule:nonzero;fill:rgb(0.392157%,0%,0.784314%);fill-opacity:1;" d="M 81.425781 29.878906 L 81.253906 29.699219 C 80.109375 28.644531 80.199219 28.703125 80.199219 28.703125 C 80.199219 28.703125 82.203125 18.59375 80.59375 13.816406 C 78.074219 6.183594 63.011719 1.0625 59.984375 0.46875 C 59.984375 0.464844 58.144531 0.09375 58.03125 0.09375 C 58.03125 0.09375 55.65625 -0.386719 52.902344 0.816406 C 51.105469 1.503906 41.722656 5.761719 39.0625 13.816406 C 37.457031 18.59375 39.464844 28.703125 39.464844 28.703125 C 39.464844 28.703125 39.550781 28.644531 38.402344 29.699219 L 38.230469 29.878906 C 37.453125 30.765625 37.644531 33.527344 38.496094 36.394531 C 39.265625 39.277344 40.269531 40.046875 40.511719 40.722656 C 42.949219 52.167969 51.417969 61.933594 60.050781 61.933594 C 68.6875 61.933594 76.714844 52.167969 79.152344 40.722656 C 79.390625 40.046875 80.394531 39.277344 81.160156 36.394531 C 82.015625 33.527344 82.230469 30.574219 81.425781 29.878906 Z M 81.425781 29.878906 "/>
</g>
</svg>
