<?xml version="1.0" encoding="UTF-8"?>
<svg xmlns="http://www.w3.org/2000/svg" xmlns:xlink="http://www.w3.org/1999/xlink" width="120px" height="120px" viewBox="0 0 120 120" version="1.1">
<g id="surface1">
<path style=" stroke:none;fill-rule:nonzero;fill:rgb(0%,0%,0%);fill-opacity:1;" d="M 61.941406 97.199219 L 56.144531 97.199219 C 52.0625 97.199219 48.746094 100.515625 48.746094 104.597656 L 48.746094 112.601562 C 48.746094 116.683594 52.0625 120 56.144531 120 L 61.941406 120 C 66.023438 120 69.339844 116.683594 69.339844 112.601562 L 69.339844 104.597656 C 69.339844 100.503906 66.023438 97.199219 61.941406 97.199219 Z M 61.941406 97.199219 "/>
<path style=" stroke:none;fill-rule:nonzero;fill:rgb(0%,0%,0%);fill-opacity:1;" d="M 21.074219 35.242188 L 31.765625 36.574219 C 35.15625 36.996094 38.375 35.046875 39.597656 31.851562 C 41.136719 27.820312 43.28125 24.640625 46.03125 22.320312 C 49.929688 19.039062 54.777344 17.386719 60.570312 17.386719 C 66.578125 17.386719 71.363281 18.964844 74.914062 22.109375 C 78.464844 25.269531 80.230469 29.042969 80.230469 33.46875 C 80.230469 36.648438 79.230469 39.558594 77.230469 42.199219 C 75.9375 43.875 71.953125 47.402344 65.308594 52.792969 C 58.648438 58.179688 54.222656 63.039062 52 67.355469 C 49.734375 71.769531 48.945312 76.667969 48.746094 81.574219 C 48.574219 85.78125 51.929688 89.28125 56.144531 89.28125 L 62.1875 89.28125 C 66.035156 89.28125 69.21875 86.335938 69.5625 82.511719 C 69.808594 79.761719 70.265625 77.675781 70.957031 76.257812 C 72.113281 73.828125 75.113281 70.625 79.921875 66.628906 C 89.230469 58.921875 95.296875 52.828125 98.148438 48.339844 C 100.984375 43.863281 102.414062 39.117188 102.414062 34.097656 C 102.414062 25.035156 98.554688 17.078125 90.820312 10.246094 C 83.101562 3.414062 72.695312 0 59.621094 0 C 47.191406 0 37.167969 3.367188 29.519531 10.113281 C 23.011719 15.859375 19.050781 22.664062 17.65625 30.519531 C 17.226562 32.816406 18.792969 34.960938 21.074219 35.242188 Z M 21.074219 35.242188 "/>
</g>
</svg>
