<?xml version="1.0" encoding="UTF-8"?>
<svg xmlns="http://www.w3.org/2000/svg" xmlns:xlink="http://www.w3.org/1999/xlink" width="28px" height="32px" viewBox="0 0 28 22" version="1.1">
<g id="surface1">
<path style=" stroke:none;fill-rule:nonzero;fill:rgb(0%,0%,0%);fill-opacity:1;" d="M 23.40625 1.761719 C 22.996094 1.359375 22.996094 0.703125 23.40625 0.304688 C 23.816406 -0.09375 24.484375 -0.0976562 24.890625 0.304688 L 27.6875 3.054688 C 27.886719 3.25 27.996094 3.511719 27.996094 3.785156 C 27.996094 4.0625 27.886719 4.324219 27.6875 4.515625 L 24.890625 7.265625 C 24.476562 7.671875 23.8125 7.671875 23.40625 7.265625 C 23 6.863281 22.996094 6.210938 23.40625 5.808594 L 24.414062 4.820312 L 16.800781 4.8125 C 16.21875 4.8125 15.75 4.351562 15.75 3.78125 C 15.75 3.210938 16.21875 2.75 16.800781 2.75 L 24.417969 2.75 Z M 4.59375 16.199219 L 3.585938 17.1875 L 11.199219 17.1875 C 11.78125 17.1875 12.25 17.648438 12.25 18.21875 C 12.25 18.789062 11.78125 19.25 11.199219 19.25 L 3.582031 19.25 L 4.589844 20.238281 C 5 20.640625 5 21.296875 4.589844 21.695312 C 4.179688 22.09375 3.511719 22.097656 3.105469 21.695312 L 0.304688 18.949219 C 0.109375 18.757812 0 18.492188 0 18.21875 C 0 17.945312 0.109375 17.679688 0.304688 17.488281 L 3.105469 14.738281 C 3.515625 14.335938 4.183594 14.335938 4.589844 14.738281 C 4.996094 15.140625 5 15.796875 4.589844 16.195312 Z M 4.199219 2.75 L 14.78125 2.75 C 14.621094 3.058594 14.523438 3.40625 14.523438 3.78125 C 14.523438 5.015625 15.542969 6.015625 16.800781 6.015625 L 21.9375 6.015625 C 21.761719 6.746094 21.960938 7.539062 22.539062 8.113281 C 23.429688 8.984375 24.867188 8.984375 25.753906 8.113281 L 26.601562 7.28125 L 26.601562 16.5 C 26.601562 18.015625 25.34375 19.25 23.800781 19.25 L 13.21875 19.25 C 13.378906 18.941406 13.476562 18.59375 13.476562 18.21875 C 13.476562 16.984375 12.457031 15.984375 11.199219 15.984375 L 6.0625 15.984375 C 6.238281 15.253906 6.039062 14.460938 5.460938 13.886719 C 4.570312 13.015625 3.132812 13.015625 2.246094 13.886719 L 1.398438 14.71875 L 1.398438 5.5 C 1.398438 3.984375 2.65625 2.75 4.199219 2.75 Z M 7 5.5 L 4.199219 5.5 L 4.199219 8.25 C 5.746094 8.25 7 7.015625 7 5.5 Z M 23.800781 13.75 C 22.253906 13.75 21 14.984375 21 16.5 L 23.800781 16.5 Z M 14 15.125 C 16.320312 15.125 18.199219 13.277344 18.199219 11 C 18.199219 8.722656 16.320312 6.875 14 6.875 C 11.679688 6.875 9.800781 8.722656 9.800781 11 C 9.800781 13.277344 11.679688 15.125 14 15.125 Z M 14 15.125 "/>
</g>
</svg>
